<?xml version="1.0" encoding="utf-8"?><svg xmlns="http://www.w3.org/2000/svg" xmlns:xlink="http://www.w3.org/1999/xlink"><symbol viewBox="0 0 45.79 44.63" id="burger" xmlns="http://www.w3.org/2000/svg"><g fill-rule="evenodd" clip-rule="evenodd"><path d="M8.502 31.551l-.015-.742.133-.068c.069.152.167.297.201.457.05.23.127.496.056.701-.055.162-.314.254-.496.387-.348-.66-.842-.865-1.437-.65-.105.039-.175.189-.252.295-.241.33-.48.662-.714.998-.109.156-.204.32-.335.529l-1.236-.979.069-.133c.183.094.375.17.546.283.227.15.415.223.581-.08.031-.057.154-.063.236-.09.083-.029.226-.045.237-.09a.586.586 0 00-.04-.334c-.079-.189-.187-.367-.283-.549.051-.023.102-.049.152-.072l.345.584c-.078-.893.632-.66.975-.922.626-.482.636.617 1.277.475zm7.505 6.412c-.75-.012-1.312.143-1.558.879-.103.307-.503.301-.704.014-.105-.154-.203-.314-.353-.545l-.242.641c-.057-.154-.112-.229-.094-.264.211-.414.335-.816-.062-1.197.119-.121.22-.287.364-.348.099-.041.259.064.424.113l.015.295c.033.592.359.785.878.518.224-.115.449-.24.652-.389.364-.268.549-.141.68.283zm1.388-16.06c-.091.901-.292 1.669-.899 2.27-.074.073-.274.073-.385.03-.059-.023-.095-.225-.069-.325.095-.362.266-.71.326-1.075.092-.573.614-.586 1.027-.9zm4.768 8.726c-.577.775-.577.775-.4.992l-.988.588.044-.379a225.53 225.53 0 00-.509-.982c.533.305.883.223 1.176-.309.248-.449.485-.201.677.09zm-1.496 10.314l-.676-.102-.117.48-.913-1.076c.712-.462.981-.366 1.706.698zm4.2-9.476l.878-1.109c.054.041.108.082.162.121-.086.109-.202.207-.251.33-.068.176-.143.381-.116.557.054.352-.396 1.168-.733 1.227a.261.261 0 01-.198-.051c-.038-.033-.056-.127-.038-.18.099-.327.214-.651.296-.895zm-1.861 1.431l1.241-.313c.067.129-.488.473.044.674l-1.318-.242c.012-.04.023-.079.033-.119zm-9.307-1.269l-.317-.969.09-.133c.21.16.456.293.607.496.042.057-.196.323-.38.606zm4.736 1.4l1.399.57-.078.213c-.473-.172-.945-.346-1.417-.52.033-.087.064-.175.096-.263zm-1.418 10.328c.435.342.806.637 1.257.994-.836-.126-1.265-.456-1.257-.994zm2.672-6.273c.444.242.375.605-.315 1.201.055-.191.114-.385.165-.578.053-.205.1-.412.15-.623zm-3.695 7.541c-.127-.264-.226-.447-.302-.639-.035-.084-.068-.227-.026-.27.058-.061.261-.092.274-.068.116.215.229.439.283.674.016.078-.143.196-.229.303zm1.332-4.666c-.298-.303-.588-.607-.023-1.18.074.465.128.809.184 1.152l-.161.028zm-2.622-8.553l.884.795-.155.158c-.332-.229-.72-.4-.875-.805.049-.048.097-.099.146-.148zm-1.226-3.058l.999-.552c.008.116.056.364.022.375-.323.11-.596.614-1.021.177zm-.35 11.31l-.13 1.648a6.081 6.081 0 01-.19-.016l.121-1.631.199-.001zm13.055-12.25l.061 1.301-.133.016-.104-1.299.176-.018zM18.652 6.31l-.901.071-.323.465.57.557c.673.658 1.439 1.02 2.16 1.02.641 0 1.213-.295 1.571-.811.288-.416.236-.938.179-1.211-.087-.418-.285-.733-.575-.913-.493-.306-.984-.461-1.459-.461-.518 0-1.258.193-1.909 1.059.213-.034.428-.071.638-.091l.049.315zm-9.866 4.162l-.807-.968-.7 1.049c-.042.063-.101.129-.157.198-.281.338-.705.849-.448 1.489.2.496.498.925.762 1.304.091.132.183.263.269.396l.395.517 1.531-.275.185-.514c.021-.06.057-.125.09-.192.165-.335.44-.894.115-1.447-.266-.454-.596-.827-.915-1.188-.107-.122-.216-.244-.32-.369zm20.346.539l.666.866 2.879-2.983-.756-.651a5.256 5.256 0 01-.213-.203c-.341-.336-.635-.625-1.097-.625l-.274.004-.221.131c-.619.363-1.136.826-1.6 1.27-.643.609-.131 1.25.242 1.719.113.139.243.302.374.472zm-14.539 2.93c.065.064.131.127.181.181l.661.725 1.025-1.009c.374-.361.76-.735 1.112-1.16.494-.598.079-1.182-.225-1.609-.102-.144-.225-.316-.354-.515l-.743-1.148-.807 1.104c-.142.193-.273.371-.396.535-.377.505-.675.904-.937 1.359-.397.688.154 1.22.483 1.537zm-1.61-7.607a9.296 9.296 0 00-.236-.145l-.231-.131h-.253c-.467 0-.739.291-1.054.627-.063.068-.126.137-.18.188l-.7.664 1.001 1.011c.088.091.182.183.272.273.21-.165.53-.227.968-.178-.237.146-.348.415-.484.644.134.123.265.248.408.367l.279.219h.337c.364 0 .602-.17.995-.452.141-.101.311-.224.503-.35l1.139-.747-1.621-1.186a21.31 21.31 0 00-.968-.693 8.154 8.154 0 01-1.252-.116c.359 0 .719.005 1.077.005zm9.988 7.756l.733 1.051 2.239-2.893-1.389-1.453c-.008.1-.03.212-.07.339-.068.216.294.581.479.861.103.158.248.287.483.551-1.015-.304-1.081-.354-1.439-1.128-.224-.48-.434-.967-.648-1.452l-.486.743c-.059.09-.135.18-.209.271-.285.348-.674.823-.63 1.448.042.596.411 1.029.708 1.377.08.095.162.189.229.285zm1.805-1.405c.11.04.202.396.152.56-.177.584-.797.96-1.715 1.012-.052-.121-.224-.322-.192-.481.114-.563 1.253-1.272 1.755-1.091zm7.289 1.769c.104.06.206.134.31.206.36.255.809.572 1.445.598.581 0 1.006-.348 1.346-.629.088-.071.175-.146.262-.203l1.075-.705-2.835-2.31-2.748 2.38 1.145.663z"/><path d="M17.044 2.939l-.373.141c.044.177.147.375.149.545a25.381 25.381 0 015.889-.699c1.043 0 2.075.062 3.088.182-.216.115-.396.305-.591.512-.064.067-.129.137-.183.188l-.698.658.993 1.02c.358.375.729.762 1.154 1.115l.282.224h.34c.355 0 .605-.171.981-.429.144-.1.317-.219.515-.342l1.171-.729-1.621-1.22A19.017 19.017 0 0027 3.28c3.531.593 6.788 1.915 9.438 3.868 3.064 2.257 4.755 4.932 5.171 8.176l.008.074H17.251c.204.1.238.354.159.852l-.713-.852H6.009c.059.242.048.589-.043 1.068-.099-.239-.193-.48-.297-.718-.051-.118-.107-.233-.162-.351H3.9l.021-.115c.158-.842.307-1.638.563-2.365.855-2.424 2.507-4.402 5.198-6.229 1.619-1.098 3.459-1.96 5.43-2.589l-.355-1.866c-2.226.69-4.306 1.657-6.132 2.897a19.497 19.497 0 00-2.238 1.764c.045.226-.045.729.532.546-.51.271-1.02.539-1.529.809-.022-.048-.042-.099-.062-.146l.569-.74c-1.488 1.479-2.546 3.108-3.189 4.929-.305.865-.475 1.77-.638 2.646-.074.395-.149.795-.238 1.201l-.25 1.145h5.971l-1.022-.217v-.711l1.5.682-.081.246h35.681l-.092-1.44a10.197 10.197 0 00-.059-.759c-.483-3.781-2.421-6.875-5.922-9.453-4.018-2.96-9.291-4.59-14.847-4.59-2.055 0-4.075.235-6.011.672l.012.029c-.826.704.385.707.332 1.196zm-6.631 1.749l.687.627c-.275.024-.628.058-1.187.107l.5-.734z"/><path d="M15.996 3.127c-.096.024-.192.051-.288.076.011.227-.013.473-.006.703.205-.06.417-.104.625-.158l-.331-.621zm-.553-1.098l-.01.002.003.004zm20.978 9.32l.855 1.039.055-.045c-.222-.56-.377-1.157-.798-1.604-.119-.127-.045-.436-.06-.66l.229-.06 1.328 1.749 1.634-1.342-.995-1.021c-.432-.447-.806-.832-1.215-1.183l-.266-.229h-.352c-.721 0-1.443 1.072-1.449 1.082l-.271.519.311.47c.309.463.656.881.994 1.285zm6.787 20.313l.236.217c.029-.41.04-.822.014-1.23l-.057-.883h-.885c-.34 0-.684.01-1.027.021-.326.01-.652.02-.979.02-.422 0-.766-.018-1.082-.055a13.718 13.718 0 00-1.637-.104c-2.473 0-4.43.84-5.947 2.561a13.361 13.361 0 01-.668-.82c-1.077-1.465-2.551-1.652-3.715-1.652h-.076c-.993.008-2.014.014-3.07.02.203.543.299 1.098.226 1.703-.007.059-.054.123-.114.182 1.022-.006 2.01-.012 2.973-.02h.063c1.143 0 1.717.232 2.197.885.324.441.686.854 1.034 1.252.156.178.315.359.474.545l.803.949.697-1.029c1.261-1.859 2.842-2.689 5.125-2.689.336 0 .693.023 1.068.059v-1.281c.087 0 .174-.004.262-.004 0 .178-.041.369.01.533.07.234.159.5.328.658a.66.66 0 01.12.158c.286.021.584.037.931.037.346 0 .691-.012 1.037-.021.01-.002.021-.002.031-.002-.111 1.91-.955 3.83-2.387 5.381-1.765 1.912-4.182 3.029-6.631 3.064-6.508.1-13.179.09-19.823-.029-2.327-.041-4.633-1.094-6.325-2.891-1.466-1.559-2.346-3.537-2.486-5.545l11.911.008c3.099 0 5.707-.006 8.089-.016a.497.497 0 01-.083-.119c-.194-.441-.298-.93-.531-1.348a.928.928 0 01-.122-.414c-2.184.008-4.571.012-7.354.012l-13.767-.009-.039.902c-.119 2.811.978 5.66 3.01 7.818 2.038 2.164 4.832 3.436 7.664 3.484 3.638.064 7.308.098 10.907.098 2.993 0 6.014-.023 8.978-.066 2.962-.045 5.874-1.385 7.987-3.672 1.59-1.723 2.567-3.84 2.822-5.994l-.691.063.499-.737zm-16.623 8.859l-.016-.205c.341-.008.696-.07 1.012.014.088.023.061.482.102.918-.518-.344-.808-.533-1.098-.727zm3.438.079c-.518.033-1.049.172-1.529-.115.01-.09.02-.178.028-.268.511.033 1.021.064 1.532.098l-.031.285zM2.93 26.396c3.467.01 6.939.012 10.438.014a6.04 6.04 0 01-.207-.42c-.168-.384.262-1.04.698-1.18a.73.73 0 00.38-.285l-1.797-.001.607 1.688c-.497-.218-.915-.975-1.091-1.689-3.019 0-6.024-.004-9.022-.012-.334-.001-.61-.104-.797-.295a.933.933 0 01-.254-.693c.015-.785.689-.953 1.252-.955 1.915-.01 3.832-.013 5.747-.014a.692.692 0 01-.018-.18c.017-.38.151-.752.239-1.139.649.311 1.059.77 1.335 1.319l3.641.002a10.133 10.133 0 01-.099-.696c.203.295.354.515.465.696l1.549.001c.579 0 1.158.004 1.738.008.583.004 1.167.008 1.75.008 1.025 0 1.862-.013 2.634-.039l.103-.002c.129 0 .244.012.354.029-.084-.091-.168-.195-.251-.271.223-.219.419-.486.684-.623.081-.041.349.287.68.576-.296.194-.494.387-.675.467.188.098.363.234.546.436.428.472.869.912 1.347 1.377l-9.704.002h-.554c-.167.674-.599 1.386-.95 1.482l-.251.25c.066.051.135.102.202.152h1.554l14.343-.002-1.646-1.615c-.371-.364-.721-.699-1.053-1.018-.712-.684-1.325-1.272-1.893-1.896-.03-.033-.063-.063-.095-.096-.021.125-.244.239-.375.359-.156-.177-.389-.336-.44-.539-.018-.071.088-.178.235-.325-.598-.425-1.267-.63-2.058-.63l-.168.002c-.75.026-1.566.039-2.569.039-.58 0-1.159-.005-1.738-.008-.583-.004-1.167-.008-1.77-.008l-6.927-.002h-.361l.214.47c-.675-.135-1.229-.247-1.785-.356.013-.041.028-.071.042-.109-.945.002-1.891.003-2.836.007l1.05.966-.14.156c-.534-.067-1.057-.148-.971-1.122l-1.134.003a3.91 3.91 0 00-.893.113c.021.014.042.024.063.039-.768.59-1.213 1.195-.873 2.14.142.393-.269.706-.702.574-.208-.062-.417-.138-.703-.235-.005.057-.019.111-.02.17l.002.029.194.609a2.08 2.08 0 00-.154-.085c.095.569.351 1.088.75 1.495.54.554 1.299.861 2.138.862zm41.075-4.104c-.275-.465-1.227-.737-2.1-.759-.086.234-.27.437-.506.51-.238.074-.481.133-.848.232.076-.209.143-.398.207-.579a1.043 1.043 0 00-.3.174c-1.174 1.034-2.284 2.14-3.419 3.218l.33.381c1.725.006 3.457.1 5.166-.059.649-.061 1.474-.633 1.781-1.205.252-.463.01-1.375-.311-1.913z"/><path d="M35.312 32.168c.194-.514.391-1.027.527-1.389-.352-.076-.352-.076-.389-1.322-.428-.141-.866-.203-.757.451.13.771-.159 1.135-.944 1.252l1.303.588c.086.141.173.279.26.42zm10.422 2.297c.061-.066-.094-.469-.139-.467-.338.016-.673.092-1.139.174l.535.852c.28-.2.55-.344.743-.559zm-.369-2.846c-.888-.1-1.295.252-1.271 1.014.841.174.767-.705 1.271-1.014zm-5.651-1.203c-.7.221-.415-.572-.586-.646l-1.006 1.309c.021.047.041.098.063.146.51-.272 1.02-.539 1.529-.809zm-4.15 4.189l-.092-.273c-.625.178-1.249.359-1.873.539l.115.346c.617-.203 1.234-.406 1.85-.612zm2.554 3.368c.116.254.236.5.347.752.104.236.197.479.297.719.22-1.157-.002-1.583-.644-1.471zm-2.809-17.961c-.2.085-.356.273-.524.411.195.081.393.216.597.229.169.011.382-.087.505-.21.066-.066.029-.383-.035-.409-.161-.066-.388-.088-.543-.021zm-9.587 13.095c.025-.041-.221-.252-.322-.363l-.569 1.359c.78.102.655-.626.891-.996zm2.967-20.168c.016-.186.014-.376.051-.558.054-.258.137-.511.212-.786h-.82c-.083.227-.231.433-.21.619.027.223.166.455.319.629.081.094.294.069.448.096zm-2.811-5.472c-.686.302-.943 1.207-.453 1.955l.453-1.955zm-12.94 4.023c.061-.068-.094-.469-.139-.467-.338.015-.673.092-1.138.173l.535.852c.279-.198.55-.344.742-.558zm14.441-1.294c-.563-.525-.782-.539-1.44-.114l.31.589 1.13-.475zm-24.61 1.435a44.415 44.415 0 01-.092-.275l-1.874.54.115.345 1.851-.61zm1.493 6.994c-.002.021 0 .035-.002.056h.062l-.06-.056zm21.696-.256l.275.283.806-1.08c-.685-.126-.997.137-1.081.797zm-3.81 3.699c.177-.432.063-.792-.505-1.041l.297 1.094.208-.053zm4.772-1.36v-1.464l-.271.012.107 1.485.164-.033zM4.147 0l-.165.156L5.128 1.39l.122-.122L4.147 0z"/></g></symbol><symbol viewBox="0 0 38.13 34.14" id="cheese" xmlns="http://www.w3.org/2000/svg"><path d="M1.425 4.438c.175-.269.354-.537.535-.802.058-.086.109-.206.191-.24.462-.186.855-.038 1.147.473.139-.108.34-.189.38-.317.05-.163-.018-.37-.063-.55-.032-.125-.113-.236-.171-.355l-.103.058.032.583c-.501.131-.538-.734-1.019-.34-.261.216-.826.053-.741.752l-.287-.45-.118.062c.081.141.17.277.238.425a.448.448 0 01.039.261c-.006.035-.119.051-.183.075-.063.025-.16.033-.183.078-.124.241-.273.19-.456.077-.136-.084-.29-.14-.436-.208l-.05.107c.331.246.663.489.998.737.098-.168.169-.3.25-.426zm14.36-.755l-.967.277-.023.095 1.043.156c-.424-.145.002-.431-.053-.528zm-8.04-.958c-.124-.157-.322-.254-.491-.373l-.067.106.275.753c.137-.228.317-.443.283-.486zm4.473 5.11c-.035.154-.075.307-.114.46.526-.486.571-.775.216-.953-.034.165-.065.332-.102.493zM7.999.47c.026-.011-.017-.204-.027-.294-.299.178-.528.314-.772.461.347.331.549-.072.799-.167zm5.893 26.997l1.128.37c.019-.056.038-.112.055-.169-.371-.137-.743-.273-1.115-.412l-.068.211zm-.619 5.269c.042-.007.084-.016.125-.024l-.174-.902c-.429.464-.193.697.049.926zm-3.518 1.169c.05.004.1.005.15.007l.06-1.301a8.625 8.625 0 01-.157.007l-.053 1.287zm19.68-24.287c-.015.03.031.087.08.205l.174-.509c.123.179.205.301.293.419.165.22.48.215.552-.028.175-.588.612-.724 1.202-.733-.113-.332-.263-.426-.541-.205a3.905 3.905 0 01-.502.323c-.401.225-.662.081-.705-.384l-.02-.23c-.131-.035-.26-.115-.337-.078-.112.052-.187.184-.278.282.323.288.236.609.082.938zm6.412-6.633c-.217.427-.488.499-.917.273.143.254.284.507.427.759-.008.102-.017.2-.024.301l.761-.49c-.145-.165-.145-.165.289-.789-.161-.226-.352-.415-.536-.054zm2.227 1.537l-.967.277-.023.095 1.043.156c-.424-.144.002-.43-.053-.528zm-8.04-.958c-.124-.156-.321-.253-.491-.373a6.056 6.056 0 00-.066.105l.275.754c.136-.227.316-.443.282-.486zm4.594 1.874l-1.114-.412-.069.211 1.129.37.054-.169zm-.121 3.237c-.035.154-.076.307-.114.46.526-.486.571-.775.216-.953-.033.165-.065.332-.102.493zm-1.68 1.83c.042-.007.083-.016.125-.024l-.175-.902c-.429.465-.194.697.05.926zm-1.693-5.926l.118-.129c-.239-.199-.478-.401-.716-.602-.036.042-.074.082-.111.122.133.313.443.438.709.609zm-.846-3.269c.026-.01-.017-.204-.026-.294-.299.177-.528.314-.771.461.344.332.547-.072.797-.167zm-12.57 26.686l.09-.001a4.228 4.228 0 004.134-4.311c-.049-2.28-1.943-4.136-4.223-4.136l-.09.001a4.195 4.195 0 00-2.958 1.313 4.178 4.178 0 00-1.174 2.999c.055 2.281 1.948 4.135 4.221 4.135zm.001-6.024c.958 0 1.766.779 1.8 1.735a1.805 1.805 0 01-1.717 1.864l-.077.002c-.337 0-.652-.1-.923-.264l.027-.04c-.114-.162-.247-.298-.38-.231a1.795 1.795 0 01-.528-1.232 1.804 1.804 0 011.75-1.833l.048-.001zm-8.76 5.163l.086-.001a3.096 3.096 0 001.935-.762c.156.193.39.304.601.438l.118-.13-.547-.458a3.112 3.112 0 00.931-2.304c-.047-1.675-1.45-3.038-3.126-3.038l-.088.001a3.1 3.1 0 00-2.178.984 3.108 3.108 0 00-.859 2.231 3.15 3.15 0 003.127 3.039zm-.001-3.942v.124c.438 0 .69.25.692.686.002.438-.249.691-.699.696-.4 0-.636-.231-.702-.689.06-.459.297-.692.705-.692l.004-.125zm17.733.726l.063-.001a2.832 2.832 0 002-.893c.53-.56.811-1.284.789-2.042a2.873 2.873 0 00-2.951-2.769 2.868 2.868 0 00-2.753 2.896 2.865 2.865 0 002.852 2.809zm-.389-2.868c-.01-.07.105-.213.227-.364.053-.064.109-.136.167-.213.054.076.106.145.154.208.13.171.233.306.229.402-.003.106-.254.36-.334.369-.171-.03-.423-.259-.443-.402z"/><path d="M35.343 27.38c-.235-.027-.471-.055-.707-.071-1.23-.083-2.194-1.053-2.24-2.255-.048-1.236.861-2.283 2.113-2.436.218-.026.435-.063.65-.1.118-.021.235-.041.354-.06l.108-.017-.177-6.606-.048-.035a6.963 6.963 0 00-.187-.138c-.138-.099-.268-.192-.384-.303a1739.075 1739.075 0 00-4.186-3.944l-1.783-1.679-.702 1.844-.415-.674-2.158-.972.537.509c.728.688 1.454 1.379 2.18 2.068l2.042 1.938c.094.09.183.184.292.298l.01.011-3.958-.549c-4.08-.567-8.298-1.153-12.449-1.712-.65-.087-.962-.236-.977-.852-.004-.235-.116-.466-.227-.695-.801-1.667-2.157-2.586-3.92-2.657-.153-.007-.298.003-.445.009.209-.12.473-.165.781-.17-.114-.332-.263-.425-.541-.205a3.975 3.975 0 01-.502.323c-.402.226-.663.081-.705-.384l-.02-.23c-.131-.035-.26-.115-.337-.078-.112.051-.187.183-.278.282.263.234.25.492.154.757-.917.368-1.68 1.063-2.273 2.081-.13.225-.325.416-.427.419l-.072.001c-.272 0-.55-.052-.873-.111l-.272-.05.31-.379c.288-.354.561-.689.848-.999a23.123 23.123 0 016.878-5.103l.947.311.055-.169-.742-.274a27.758 27.758 0 015.265-1.853c.52-.127.8-.057 1.16.287 1.873 1.788 3.752 3.568 5.632 5.349l1.828 1.732.068-.018c.979-.262 1.469-.799 1.539-1.69l.006-.06-.044-.041a600.064 600.064 0 01-3.163-3.013c.12-.181.239-.362.361-.542.058-.086.108-.206.191-.239.461-.187.854-.038 1.147.473.139-.108.34-.189.379-.318.051-.162-.018-.369-.063-.549-.031-.125-.112-.235-.171-.354a3.379 3.379 0 01-.103.056c.012.203.021.406.031.583-.5.132-.537-.733-1.018-.339-.262.216-.826.052-.741.752l-.288-.45-.117.062c.081.141.17.277.238.425a.447.447 0 01.039.261c-.002.012-.026.02-.046.027a332.387 332.387 0 01-3.525-3.432C19.188.428 18.293 0 17.21 0c-.462 0-.966.081-1.543.246-2.669.767-5.05 1.758-7.161 2.98l-.259-.217-.111.121a.73.73 0 00.161.231c-3.38 2.003-6.063 4.61-8.096 7.884-.022.036-.06.07-.099.107-.022.021-.045.042-.066.064L0 11.454l.466 17.339-.001-.001.018.621.562.071-.385-.459.078-.17c.086.041.173.08.26.119.281.127.546.246.763.424l.272.22 1.048.138c1.313.172 2.627.344 3.939.525l2.977.414c-.069.063-.131.144-.197.216.323.288.236.608.081.938-.014.029.032.087.081.204l.173-.508c.124.179.205.3.293.418.165.221.48.215.552-.027.175-.589.612-.724 1.202-.734a.747.747 0 00-.11-.218c4.518.627 9.035 1.255 13.551 1.885l.101.014.051-.14c.077-.211.157-.43.218-.651.211-.775.512-.865.72-.865.21 0 .477.104.811.316-.535.425-.944.827-1.247 1.229l-.129.17 3.557.495c1.047.146 2.111.313 3.139.476l1.439.225.012.001h.011c.503-.013 1.005-.025 1.507-.04l.125-.004-.18-6.667-.415-.048zM6.35 26.073c-.031-.125-.112-.236-.171-.354l-.102.057.031.583c-.501.13-.538-.735-1.018-.339-.262.216-.826.052-.741.752l-.288-.45c-.039.02-.078.04-.117.062.081.141.17.276.238.424a.458.458 0 01.039.262c-.007.036-.12.051-.184.076-.063.024-.16.032-.183.078-.048.094-.101.134-.157.152l-.213-.029c-.028-.015-.056-.027-.086-.046-.136-.084-.289-.14-.435-.208l-.051.106.113.083-.135-.019-.376-13.965.38.052c.411.058.8.111 1.196.146.298.027.421.139.524.478.565 1.872 1.863 2.994 3.752 3.247 1.792.235 3.303-.475 4.331-2.034.244-.37.417-.438.796-.382 3.601.515 7.265 1.022 10.808 1.514l3.017.419.027.004 1.084-.314.163.488.271.038 2.74.382 1.452.204.019.617c.021.731.043 1.423.039 2.12-.001.073-.135.241-.265.305-1.956.964-2.916 2.486-2.854 4.526.061 2.013 1.092 3.464 3.066 4.313.15.065.299.212.305.278.041.454.049.915.058 1.402l.009.414-1.566-.218-13.219-1.84-14.442-2.011c.162-.248.326-.494.492-.739.058-.086.108-.205.191-.238.461-.187.855-.038 1.147.472.139-.108.34-.189.38-.317.048-.164-.019-.371-.065-.551zm25.511 5.308l1.971 1.814-.16.177c-.984-.123-1.895-.271-1.813-1.963l.002-.028zM9.058 14.845a2.03 2.03 0 01-.783-.108l-.121-.041-.038.121c-.183.578-.443.92-1.133.886l.578-1.379-.062-.06a2.04 2.04 0 01-.64-1.377 2.077 2.077 0 01.541-1.511c.374-.411.883-.65 1.435-.675l.091-.002c1.124 0 2.037.876 2.078 1.994a2.088 2.088 0 01-1.946 2.152zM7.4 8.476l.034.049-.057.016.023-.065zm4.242 22.522a3.968 3.968 0 01-.502.322c-.402.226-.663.081-.706-.384a8.364 8.364 0 00-.016-.183l1.326.185c-.034.019-.064.03-.102.06z"/></symbol><symbol viewBox="0 0 42.25 38.15" id="cucumber" xmlns="http://www.w3.org/2000/svg"><g fill-rule="evenodd" clip-rule="evenodd"><path d="M1.784 16.222a80.46 80.46 0 011.367-.861c.146-.091.306-.24.454-.234.832.032 1.333.529 1.428 1.508.286-.072.649-.056.798-.226.188-.213.226-.575.28-.881.037-.212-.01-.438-.018-.658l-.195.016-.353.912c-.855-.144-.319-1.49-1.321-1.215-.548.15-1.297-.487-1.648.64l-.13-.885-.221.013c.026.271.07.541.072.811a.771.771 0 01-.119.427c-.034.05-.217-.003-.333-.009-.113-.005-.266-.06-.332-.006-.354.284-.547.103-.75-.194-.15-.221-.347-.412-.522-.615l-.15.128 1.02 1.808c.264-.19.463-.344.673-.479zm7.383 11.427c.667-.776 1.429-.684 2.338-.298.052-.583-.111-.829-.687-.683a6.298 6.298 0 01-.988.148c-.376.035-.638-.047-.779-.223a.631.631 0 00.113-.492.863.863 0 00-.147-.354c.043-.127.089-.255.128-.365-.177-.143-.32-.352-.462-.351-.207.003-.412.155-.617.243.015.035.022.066.034.099-.196.065-.398.124-.516.258a9.699 9.699 0 00-1.064 1.452c-.187.314-.05.648.258.868.294.21.694.175.942-.103.18-.203.313-.448.485-.66.018-.021.042-.041.062-.062.012.062.024.126.037.185.101.453.586.662.863.338zm13.494-6.175c-.09-.453-.254-.871-.78-.447-.622.503-1.088.429-1.587-.209l.132 1.451-.243.439c.554-.082 1.108-.167 1.498-.227-.11-.349-.11-.349.98-1.007zm-4.319 2.463l-1.421-1.393-.248.275 1.469 1.338.2-.22zm-1.91 4.177c-.165.23-.325.46-.493.684-.158.211-.325.416-.488.623 1.136-.383 1.402-.792.981-1.307zm19.44-4.885c-.58-.075-.832.081-.708.661.069.323.095.66.113.992.042.769-.368 1.055-1.097.773a41.076 41.076 0 01-.362-.143c-.149.172-.363.307-.366.449-.006.206.139.416.22.626.671-.271 1.088.097 1.468.573.033.043.152.017.369.031l-.637-.637c.357-.055.603-.086.845-.131.453-.084.679-.561.367-.85-.751-.693-.631-1.451-.212-2.344zm5.617-3.22l.488-.755c-1.67.292-1.932.562-1.762 1.668.556-.159 1.109-.317 1.785-.513-.298-.234-.427-.336-.511-.4zm-14.991 1.769c-.325.071-.618.295-.923.461l.109.18 1.335.145c-.241-.376-.431-.805-.521-.786zm10.319-3.445c.223.173.447.342.664.518.205.166.404.34.605.511-.341-1.15-.74-1.43-1.269-1.029zm2.166 4.396l.055-.206-1.482-.406c.38.987.902.806 1.427.612z"/><path d="M35.303 6.644c-.313-.777-.545-1.586-.835-2.372C33.073.498 29.691-.385 26.969.137c-3.033.582-5.194 2.406-6.804 4.964-.37.587-.739 1.175-1.129 1.748a2.298 2.298 0 01-.48.485c-.505.397-.734.916-.58 1.528.103.409-.006.699-.245.994-.674.832-1.511 1.472-2.405 2.042a.662.662 0 01-.364.076c-.98-.038-1.495.443-1.7 1.405-.136.638-.354 1.294-.694 1.844a11.926 11.926 0 01-3.401 3.546c-.112.078-.252.153-.384.161-1.131.073-1.523.432-1.688 1.561-.166 1.133-.617 2.099-1.594 2.768-.454.311-.89.646-1.329.978-.219.165-.426.213-.715.144-.856-.203-1.698.322-1.777 1.145-.104 1.084-.495 2.072-.848 3.082-.352 1.006-.637 2.034-.799 2.556-.281 3.134 1.25 5.524 3.691 6.261.684.207 1.42.324 2.133.33 1.472.013 2.945-.123 4.417-.113 1.39.009 2.496-.402 3.16-1.699a.602.602 0 01.285-.243 94.937 94.937 0 012.399-1.007c.814-.324 1.643-.505 2.541-.362.897.143 1.592-.491 1.682-1.403.019-.19.115-.442.26-.54.712-.482 1.44-.94 2.167-1.399.006.277.133.533.652.717l-.888.098.005.222c.271-.017.543-.051.813-.042.145.003.309.05.421.135.049.035-.011.217-.021.332-.009.113-.068.264-.019.331.271.364.083.55-.222.741-.227.143-.424.332-.635.5l.123.156 1.844-.953c-.178-.271-.324-.475-.452-.69a92.291 92.291 0 01-.81-1.398c-.085-.149-.229-.313-.217-.462.002-.031.016-.053.02-.084.092-.057.18-.119.271-.176.211-.129.49-.182.743-.205.763-.07 1.303-.48 1.425-1.221.114-.684.465-1.207.938-1.67a6.528 6.528 0 012.862-1.652c.792-.218 1.276-.852 1.149-1.602-.144-.846.084-1.563.553-2.25.553-.811 1.074-1.645 1.631-2.454.078-.114.264-.199.41-.213 1.079-.107 1.662-1.026 1.35-2.055-.121-.396-.189-.873-.089-1.263.423-1.635.985-3.237.962-4.961-.001-.137.145-.304.266-.409.635-.552.736-1.308.32-2.028a14.754 14.754 0 01-.87-1.789zm-5.462 12.104c-.056.083-.118.163-.175.241-.671-.292-.82-.219-1.309.287-.301.311-.693.561-1.087.749-.503.238-.745.554-.603.984.121.369.437.527.85.47.226-.011.433-.071.624-.171-.13.604-.247 1.201-.401 1.787-.025.1-.215.167-.34.227-.295.142-.575.304-.854.465a2.6 2.6 0 01.284-.355c.121-.127.311-.187.471-.277l-.137-.229-1.623.916c-.223.258-.521.594-.809.943-.047.057-.071.178-.041.237.018.035.05.069.087.097-.48.471-.917.988-1.254 1.613-.289.533-.651.821-1.19 1.061-1.778.785-3.381 1.832-4.625 3.364a.533.533 0 01-.322.176c-.756.083-1.475.289-2.179.544-.259-.349-.615-.389-1.238-.27l.219.67a109.83 109.83 0 01-1.876.776c-.635.257-1.053.74-1.407 1.303-.079.125-.24.275-.37.281-1.5.072-3.002.123-4.504.165-.302.008-.605-.044-.907-.077-1.736-.191-2.364-1.715-2.153-2.912.126-.719.39-1.415.616-2.115a44.4 44.4 0 01.706-2.002.63.63 0 01.296-.323c1.491-.694 2.818-1.644 3.883-2.871.579-.665.871-1.577 1.304-2.371.09-.165.2-.351.352-.446a16.765 16.765 0 002.921-2.32c.074.171.169.333.278.489-.158.259-.267.534-.284.798a.746.746 0 00.583.801.715.715 0 00.848-.505c.121-.436.366-.69.793-.825a.713.713 0 00.5-.887c-.089-.357-.428-.576-.832-.538-.483.045-.995.383-1.367.821l-.222-.459a13.132 13.132 0 002.594-3.969c.052-.125.191-.241.318-.307.425-.222.828-.473 1.217-.738a.909.909 0 00.396.53c.407.27.73.663 1.113.974.107.086.368.152.428.094.1-.098.19-.295.176-.428.31-.063.531-.322.587-.743.059-.451.292-.765.673-1 .436-.271.546-.687.306-1.067-.221-.349-.651-.437-1.07-.198-.732.417-1.151 1.038-1.31 1.712a4.881 4.881 0 00-.515-.45 12.341 12.341 0 001.777-1.764c.563-.685.939-1.454.996-2.357a.773.773 0 01.138-.351c.492-.765 1.007-1.517 1.484-2.291.912-1.482 2.1-2.651 3.719-3.331 1.104-.463 2.234-.561 3.385-.149.796.287 1.369.821 1.694 1.584.328.769.586 1.568.88 2.352.092.245.208.486.315.728-.043-.041-.09-.08-.13-.121-.122-.125-.176-.318-.26-.48l-.233.128c.274.533.55 1.065.855 1.655l.048.044c-.033.461-.205.935-.294 1.401a3.022 3.022 0 00-.047.475c-.009.28-.058.492-.343.669-.172.106-.234.432-.287.671-.051.227-.057.412-.367.426-.203.008-.36.064-.492.142-.146-.062-.287-.311-.69-1.037-.455.073-.88.222-.476.764.48.64.389 1.103-.268 1.578l1.44-.077a.87.87 0 00.19.104l.256.154-.012-.095c.023.003.04.013.063.015l.234.02c-.095.721-.187 1.417-.282 2.114-.007.052-.035.119-.076.147-.775.543-1.13 1.409-1.636 2.16z"/><path d="M25.425 18.493c-.417-.093-.765.109-.895.546-.149.503-.312.948-.871 1.188a.669.669 0 00-.263.209c-.018-.236-.115-.491-.094-.709.004-.047-.318-.124-.462-.178l.12 1.499a.746.746 0 00.286-.176.999.999 0 00.124.601c.231.385.681.525 1.041.272.854-.597 1.354-1.436 1.565-2.367.044-.482-.179-.801-.551-.885zM13.72 28.936c-.343-.161-.715-.045-.937.296a2.335 2.335 0 01-.236.318l.131-.558c-.438.188-.63.396-.699.613-.072-.028-.136-.052-.231-.097-.354-.169-.751-.07-.958.237-.212.313-.184.739.138.97.307.219.671.359 1.011.533.951.011 1.871-.535 2.156-1.328.151-.417.003-.805-.375-.984zm6.059-4.884c-.279-.014-.549.137-.671.469-.147.406-.458.616-.824.771-.172.074-.364.105-.527.192-.324.174-.487.446-.394.823.091.37.339.566.716.572.926.014 2.196-.98 2.423-1.889.116-.458-.183-.889-.723-.938zm9.65-14.119c.026.271-.013.547-.012.821.001.425.272.733.668.77.376.036.69-.197.786-.592.031-.125.042-.256.063-.384l.042-.007c-.06-.485-.052-.992-.202-1.447-.105-.323-.377-.641-.658-.847-.331-.242-.815-.084-1.037.231-.228.326-.165.663.147 1.011a.825.825 0 01.203.444zm-.231 4.442c-.371.087-.611.437-.529.863.071.376-.035.556-.416.645a.702.702 0 00-.539.854c.09.406.439.641.872.585.849-.111 1.548-.862 1.619-1.855-.02-.103-.039-.334-.107-.55-.139-.437-.494-.639-.9-.542zm-5.825-5.774c.079-.033.263-.078.409-.177.427-.285.833-.598 1.256-.887.313-.212.442-.565.31-.903-.132-.334-.495-.555-.837-.454-.756.223-1.386.655-1.828 1.31-.315.464.021 1.065.69 1.111zM23.79 23.2c-.313-.13-.678-.088-.811.202-.229.496-.619.795-1.01 1.128-.255.218-.27.539-.105.834.163.291.422.437.761.382.26-.042.521-.179.76-.366l.562.36c-.548-.509.3-.654.282-.843l-.339-.049c.198-.284.335-.604.364-.913.005-.327-.134-.599-.464-.735zm-6.177 5.47c-.366-.22-.735-.1-1.047.287-.093.116-.295.14-.438.222-.249.143-.581.244-.705.461-.102.178-.028.555.108.742.15.207.46.299.608.387.867-.01 1.338-.421 1.687-1.01.257-.432.164-.863-.213-1.089zm-6.967 3.575c-.202-.107-.529-.091-.76-.011-.386.134-.739.363-1.107.55-.319.162-.476.424-.429.773s.261.57.619.625c.537.082 1.722-.534 1.957-1.015.037-.076.058-.161.124-.353-.108-.16-.204-.46-.404-.569z"/></g></symbol></svg>